<?xml version="1.0" encoding="UTF-8"?>
<svg id="Capa_1" xmlns="http://www.w3.org/2000/svg" version="1.1" viewBox="0 0 46.9 46.9">
  <!-- Generator: Adobe Illustrator 29.0.0, SVG Export Plug-In . SVG Version: 2.1.0 Build 186)  -->
  <defs>
    <style>
      .st0 {
        fill: #2D3748;
      }
    </style>
  </defs>
  <path class="st0" d="M37.1,32.5c-.5.4-1.1.4-1.6,0L15.8,14.7c-.9-.8-.1-2.3,1.1-2.1l8.1,1.9c.4,0,.8,0,1.1-.3l9.4-8.5c.5-.4,1.1-.4,1.6,0l9.3,8.4c.1.1.3.2.5.3V6.1c0-3.4-2.7-6.1-6.1-6.1H6.1C2.7,0,0,2.7,0,6.1v17.8s10.2-9.2,10.2-9.2c.5-.4,1.1-.4,1.6,0l19.7,17.8c.9.8.1,2.3-1.1,2.1l-8.1-1.9c-.4,0-.8,0-1.1.3l-9.4,8.5c-.5.4-1.1.4-1.6,0L.9,32.9c-.2-.2-.6-.3-.9-.3v1.5s0,6.7,0,6.7c0,3.4,2.7,6.1,6.1,6.1h34.7c3.4,0,6.1-2.7,6.1-6.1v-17.2l-9.8,8.8Z"/>
</svg>