<?xml version="1.0" encoding="UTF-8"?>
<svg id="Capa_1" xmlns="http://www.w3.org/2000/svg" version="1.1" viewBox="0 0 222.8 47.5">
  <!-- Generator: Adobe Illustrator 29.0.0, SVG Export Plug-In . SVG Version: 2.1.0 Build 186)  -->
  <defs>
    <style>
      .st0 {
        fill: #ffffffff;
      }
    </style>
  </defs>
  <path class="st0" d="M37.1,33c-.5.4-1.1.4-1.6,0L15.8,15.3c-.9-.8-.1-2.3,1.1-2.1l8.1,1.9c.4,0,.8,0,1.1-.3l9.4-8.5c.5-.4,1.1-.4,1.6,0l9.3,8.4c.1.1.3.2.5.3V6.7c0-3.4-2.7-6.1-6.1-6.1H6.1C2.7.6,0,3.3,0,6.7v17.8s10.2-9.2,10.2-9.2c.5-.4,1.1-.4,1.6,0l19.7,17.8c.9.8.1,2.3-1.1,2.1l-8.1-1.9c-.4,0-.8,0-1.1.3l-9.4,8.5c-.5.4-1.1.4-1.6,0L.9,33.5c-.2-.2-.6-.3-.9-.3v1.5s0,6.7,0,6.7c0,3.4,2.7,6.1,6.1,6.1h34.7c3.4,0,6.1-2.7,6.1-6.1v-17.2l-9.8,8.8Z"/>
  <g>
    <path class="st0" d="M77.4,5.5h-10.3v17.1h-5.7V5.5h-10.3V.6h26.3v4.9Z"/>
    <path class="st0" d="M85,.6v22h-5.7V.6h5.7Z"/>
    <path class="st0" d="M112.8,9c0,7.4-.7,8.4-8.2,8.4h-10.7v5.3h-5.7V.6h16.4c7.3,0,8.2,1,8.2,8.4ZM107.1,6.1h-13.2v5.8h13.2v-5.8Z"/>
    <path class="st0" d="M140.8,15.9c0,6.7-2.4,7.3-13,7.3s-12.9-.6-12.9-7.4h5.8v1.9h14.3v-3.7h-7.2c-10.6,0-12.7,0-12.7-6.7s2.3-7.3,12.7-7.3,12.7.7,12.7,7.4h-5.7v-1.9h-13.9v3.7h7c10.7,0,13,0,13,6.7Z"/>
    <path class="st0" d="M168.4,5.5h-10.3v17.1h-5.7V5.5h-10.3V.6h26.3v4.9Z"/>
    <path class="st0" d="M176,17.1h18.5v5.5h-24.2s0-22,0-22h24.2v5.5h-18.5v3.1h18v4.9h-18v3.1Z"/>
    <path class="st0" d="M222.8,20.8v1.8h-5.7v-5.3h-13.9v5.3h-5.7V.6h17.1c7.3,0,8.2.8,8.2,8.4s-.7,4.4-2.2,5.3c1.6.9,2.2,1.4,2.2,6.6ZM217.1,6.1h-13.9v5.8h13.9v-5.8Z"/>
  </g>
  <g>
    <path class="st0" d="M74.7,32h-9.2v15.3h-5.1v-15.3h-9.2v-4.4h23.5v4.4Z"/>
    <path class="st0" d="M99,45.7v1.6h-5.1v-4.7h-12.5v4.7h-5.1v-19.7h15.3c6.6,0,7.3.7,7.3,7.5s-.6,3.9-2,4.7c1.4.8,2,1.2,2,5.9ZM93.9,32.5h-12.4v5.2h12.4v-5.2Z"/>
    <path class="st0" d="M118.7,44.1h-11.2l-1.5,3.2h-5.7l9.1-19.7h7.4l9.1,19.7h-5.7l-1.5-3.2ZM116.6,39.7l-3.6-7.7-3.6,7.7h7.1Z"/>
    <path class="st0" d="M149.7,40.7c-.2,6.7-1.8,7.1-11.6,7.1s-11.7-.5-11.7-10.4.5-10.4,11.7-10.4,11.3.4,11.6,7.1h-5.2v-2.2h-12.9v10.9h12.9v-2.2h5.2Z"/>
    <path class="st0" d="M160.3,40h-3.1v7.3h-5.1v-19.7h5.1v7.3h3.1l7.3-7.3h6.7l-9.8,9.8,9.8,9.9h-6.7l-7.3-7.3Z"/>
    <path class="st0" d="M180.9,42.4h16.6v4.9h-21.7s0-19.7,0-19.7h21.7v4.9h-16.6v2.7h16.2v4.4h-16.2v2.7Z"/>
    <path class="st0" d="M222.8,45.7v1.6h-5.1v-4.7h-12.5v4.7h-5.1v-19.7h15.3c6.6,0,7.3.7,7.3,7.5s-.6,3.9-2,4.7c1.4.8,2,1.2,2,5.9ZM217.7,32.5h-12.4v5.2h12.4v-5.2Z"/>
  </g>
</svg>