<?xml version="1.0" encoding="UTF-8"?>
<svg id="Capa_1" xmlns="http://www.w3.org/2000/svg" version="1.1" viewBox="0 0 46.9 46.9">
  <!-- Generator: Adobe Illustrator 29.0.0, SVG Export Plug-In . SVG Version: 2.1.0 Build 186)  -->
  <defs>
    <style>
      .st0 {
        fill: #ffffffff;
      }
    </style>
  </defs>
  <path class="st0" d="M42.5,39.6c0-.3,0-.5-.4-.5h-1.8v.9h1.8c.4,0,.4-.2.4-.5Z"/>
  <path class="st0" d="M20.2,39.2h-1.8v.9h1.8c.4,0,.4-.2.4-.5s0-.5-.4-.5Z"/>
  <path class="st0" d="M11,6.1h-1.7v.9h1.7c.4,0,.4-.1.4-.5s0-.5-.4-.5Z"/>
  <polygon class="st0" points="23.3 40.4 24.6 40.4 24 39.1 23.3 40.4"/>
  <path class="st0" d="M28.4,6.1h-1.8v.9h1.8c.4,0,.4-.2.4-.5s0-.5-.4-.5Z"/>
  <path class="st0" d="M40.8,0H6.1C2.7,0,0,2.7,0,6.1v17.8s10.2-9.2,10.2-9.2c.5-.4,1.1-.4,1.6,0l19.7,17.8c.9.8.1,2.3-1.1,2.1l-8.1-1.9c-.4,0-.8,0-1.1.3l-6.1,5.5h2v.8h-1.6v2.7h-.9v-2.7h-.3l-2.5,2.2c-.5.4-1.1.4-1.6,0L.9,32.9c-.2-.2-.6-.3-.9-.3v1.5s0,6.7,0,6.7c0,3.4,2.7,6.1,6.1,6.1h34.7c3.4,0,6.1-2.7,6.1-6.1v-17.2l-9.8,8.8c-.5.4-1.1.4-1.6,0L15.8,14.7c-.9-.8-.1-2.3,1.1-2.1l8.1,1.9c.4,0,.8,0,1.1-.3l9.4-8.5c.5-.4,1.1-.4,1.6,0l9.3,8.4c.1.1.3.2.5.3V6.1c0-3.4-2.7-6.1-6.1-6.1ZM21.5,41.5v.3h-.9v-.3c0-.4,0-.5-.4-.5h-1.8v.8h-.9v-3.5h2.7c1.2,0,1.3.1,1.3,1.3s-.1.7-.4.8c.2.2.4.2.4,1ZM25.2,41.8l-.3-.6h-2l-.3.6h-1l1.6-3.5h1.3l1.6,3.5h-1ZM28.4,41c.9,0,1.1,0,1.1-.4h.9c0,1.2-.3,1.3-2.1,1.3s-2.1,0-2.1-1.8,0-1.8,2.1-1.8,2,0,2.1,1.3h-.9c0-.4-.3-.4-1.1-.4s-1.2,0-1.2,1,0,1,1.2,1ZM39.4,38.3h2.7c1.2,0,1.3.1,1.3,1.3s-.1.7-.4.8c.2.2.4.2.4,1v.3h-.9v-.3c0-.4,0-.5-.4-.5h-1.8v.8h-.9v-3.5ZM35.1,38.3h3.9v.9h-2.9v.5h2.9v.8h-2.9v.5h2.9v.9h-3.9s0-3.5,0-3.5ZM32.5,39.5l1.2-1.2h1.2l-1.7,1.7,1.7,1.8h-1.2l-1.2-1.2c0,0-.2-.1-.3-.1h-.4v1.3h-.9v-3.5h.9v1.3h.4c0,0,.2,0,.3-.1ZM6.6,6h-1.6v2.7h-.9v-2.7h-1.6v-.8h4.2v.8ZM7.8,8.8h-.9v-3.5h.9v3.5ZM11,7.9h-1.7v.8h-.9v-3.5h2.6c1.2,0,1.3.2,1.3,1.3s-.1,1.3-1.3,1.3ZM14.6,8.9c-1.7,0-2.1,0-2.1-1.2h.9c0,.3.2.3,1.1.3s1.1,0,1.1-.3-.1-.3-1.1-.3c-1.7,0-2,0-2-1.1s.4-1.2,2-1.2,2,.1,2,1.2h-.9c0-.3-.1-.3-1.1-.3s-1.1,0-1.1.3.1.3,1.1.3c1.7,0,2.1,0,2.1,1.1s-.4,1.2-2.1,1.2ZM21.1,6h-1.6v2.7h-.9v-2.7h-1.6v-.8h4.2v.8ZM25.2,6.1h-2.9v.5h2.9v.8h-2.9v.5h2.9v.9h-3.9s0-3.5,0-3.5h3.9v.9ZM29.7,8.5v.3h-.9v-.3c0-.4,0-.5-.4-.5h-1.8v.8h-.9v-3.5h2.7c1.2,0,1.3.1,1.3,1.3s-.1.7-.4.8c.2.2.4.2.4,1Z"/>
</svg>